<svg xmlns="http://www.w3.org/2000/svg" xmlns:xlink="http://www.w3.org/1999/xlink" id="Layer_1" x="0" y="0" version="1.1" viewBox="-405 27 500 500" style="enable-background:new -405 27 500 500" xml:space="preserve"><style type="text/css">.st0{fill:none}.st1,.st2{clip-path:url(#SVGID_2_);fill:#097138}.st2{fill:#0b8043}.st3{fill:#009688}.st4{fill:#33ac71}.st5{fill:#80cbc4}.st6{fill:#f5f5f5}</style><rect width="480" height="480" x="-395" y="37" class="st0"/><g><defs><path id="SVGID_1_" d="M65,277c0-60.8-24.6-115.8-64.4-155.6l0,0C-42.4,78.5-98.7,57-155,57v20c-55.2,0-105.2,22.4-141.4,58.6 l-14.1-14.1C-350.4,161.2-375,216.2-375,277s24.6,115.8,64.4,155.6l14.1-14.1c36.2,36.2,86.2,58.6,141.4,58.6v20 c60.8,0,115.8-24.6,155.6-64.4l-14.2-14.1C22.6,382.2,45,332.2,45,277H65z"/></defs><clipPath id="SVGID_2_"><use xlink:href="#SVGID_1_" style="overflow:visible"/></clipPath><circle cx="-155" cy="277" r="200" class="st1"/><path d="M0.6,432.6C-39.2,472.4-94.2,497-155,497V277L0.6,432.6z" class="st2"/><path d="M-310.6,121.4C-350.4,161.2-375,216.2-375,277s24.6,115.8,64.4,155.6L-155,277L-310.6,121.4z" class="st2"/><path d="M0.6,121.4L0.6,121.4C-42.4,78.5-98.7,57-155,57v220H65C65,216.2,40.4,161.2,0.6,121.4z" class="st2"/></g><path d="M-34.8,156.8L-155,277l120.2,120.2C-4,366.5,15,324,15,277S-4,187.6-34.8,156.8z" class="st3"/><path d="M-34.8,156.8C-65.6,126-108.1,107-155,107s-89.4,19-120.2,49.8C-306,187.6-325,230.1-325,277	s19,89.5,49.8,120.2C-244.4,428-201.9,447-155,447s89.4-19,120.2-49.8L-155,277L-34.8,156.8z" class="st4"/><path d="M-155,207c-38.6,0-70,31.4-70,70s31.4,70,70,70c19.6,0,37.2-8,49.9-20.9l35.1,35.1c21.7-21.7,35-51.8,35-85	s-13.3-63.3-35-85l-35.9,35.9C-118.5,214.7-135.9,207-155,207z" class="st5"/><path d="M-155,347c-38.6,0-70-31.4-70-70s31.4-70,70-70c19.1,0,36.5,7.7,49.1,20.1l35.9-35.9c-21.7-21.7-51.8-35-85-35	c-66.2,0-120,53.8-120,120s53.8,120,120,120c33.2,0,63.3-13.3,85-35l-35.1-35.1C-117.8,339-135.4,347-155,347z" class="st6"/></svg>